<svg   id="chart"   width="1000"   height="500"   viewBox="0 0 1000 500"   xmlns="http://www.w3.org/2000/svg" >      <path d="M 0,497.85762369242923 C 5.46,496.2774831730317 80.08,475.70125049393215 91,471.5219483691379 C 101.92,467.3426462443436 171.08,434.1460707451551 182,428.20258827919093 C 192.92,422.25910581322677 262.08,375.39434488306154 273,372.4639072697354 C 283.92,369.53346965640924 353.08,384.43847459215306 364,379.36196139042204 C 374.92,374.285448188691 444.08,295.7683447931001 455,287.85535390755166 C 465.92,279.94236302200324 535.08,247.92051367672462 546,247.47877996461517 C 556.92,247.03704625250572 626.08,280.3178724530054 637,280.49312537239393 C 647.92,280.66837829178246 717.08,249.69808709847547 728,250.3996619544235 C 738.92,251.10123681037152 808.08,302.0313543652585 819,292.18603963819436 C 829.92,282.3407249111302 899.08,99.67121085385357 910,86.31108317002145 C 920.92,72.95095548618933 995.54,70.52487520340081 1001,69.51724490765906,L 1000 500,L 0 500Z" fill="#457af71a" />   <path d="M 0,497.85762369242923 C 5.46,496.2774831730317 80.08,475.70125049393215 91,471.5219483691379 C 101.92,467.3426462443436 171.08,434.1460707451551 182,428.20258827919093 C 192.92,422.25910581322677 262.08,375.39434488306154 273,372.4639072697354 C 283.92,369.53346965640924 353.08,384.43847459215306 364,379.36196139042204 C 374.92,374.285448188691 444.08,295.7683447931001 455,287.85535390755166 C 465.92,279.94236302200324 535.08,247.92051367672462 546,247.47877996461517 C 556.92,247.03704625250572 626.08,280.3178724530054 637,280.49312537239393 C 647.92,280.66837829178246 717.08,249.69808709847547 728,250.3996619544235 C 738.92,251.10123681037152 808.08,302.0313543652585 819,292.18603963819436 C 829.92,282.3407249111302 899.08,99.67121085385357 910,86.31108317002145 C 920.92,72.95095548618933 995.54,70.52487520340081 1001,69.51724490765906" fill="none" stroke="#457af7" stroke-width="4px" />   <g>   		<circle cx="0" cy="497.85762369242923" r="8" fill="#457af7" />,		<circle cx="91" cy="471.5219483691379" r="8" fill="#457af7" />,		<circle cx="182" cy="428.20258827919093" r="8" fill="#457af7" />,		<circle cx="273" cy="372.4639072697354" r="8" fill="#457af7" />,		<circle cx="364" cy="379.36196139042204" r="8" fill="#457af7" />,		<circle cx="455" cy="287.85535390755166" r="8" fill="#457af7" />,		<circle cx="546" cy="247.47877996461517" r="8" fill="#457af7" />,		<circle cx="637" cy="280.49312537239393" r="8" fill="#457af7" />,		<circle cx="728" cy="250.3996619544235" r="8" fill="#457af7" />,		<circle cx="819" cy="292.18603963819436" r="8" fill="#457af7" />,		<circle cx="910" cy="86.31108317002145" r="8" fill="#457af7" />,		<circle cx="1001" cy="69.51724490765906" r="8" fill="#457af7" />   </g> </svg>